<svg width="24" height="24" xmlns="http://www.w3.org/2000/svg" xmlns:xlink="http://www.w3.org/1999/xlink" xml:space="preserve" overflow="hidden"><g transform="translate(-628 -348)"><path d="M645.813 352.653 646.667 352.653C648.177 352.707 649.436 353.231 650.44 354.227 651.444 355.222 651.964 356.476 652 357.987L652 365.347C651.964 366.857 651.444 368.116 650.44 369.12 649.436 370.124 648.178 370.644 646.667 370.68L633.333 370.68C631.823 370.644 630.564 370.124 629.56 369.12 628.556 368.116 628.036 366.858 628 365.347L628 357.987C628.036 356.476 628.556 355.222 629.56 354.227 630.564 353.231 631.822 352.707 633.333 352.653L634.107 352.653 632.933 351.533C632.689 351.295 632.554 350.968 632.56 350.627 632.56 350.271 632.684 349.969 632.933 349.72L632.96 349.693C633.227 349.444 633.533 349.32 633.88 349.32 634.227 349.32 634.533 349.444 634.8 349.693L637.653 352.44C637.724 352.511 637.787 352.582 637.84 352.653L642.107 352.653C642.149 352.574 642.203 352.502 642.267 352.44L645.12 349.693C645.387 349.444 645.693 349.32 646.04 349.32 646.387 349.32 646.702 349.471 646.969 349.72 647.236 349.969 647.36 350.271 647.36 350.627 647.36 350.982 647.236 351.284 646.987 351.533ZM633.333 355.24C632.587 355.258 631.96 355.516 631.453 356.013 630.947 356.511 630.684 357.143 630.667 357.907L630.667 365.427C630.684 366.191 630.947 366.822 631.453 367.32 631.96 367.818 632.587 368.076 633.333 368.093L646.667 368.093C647.413 368.076 648.04 367.818 648.547 367.32 649.053 366.822 649.316 366.191 649.333 365.427L649.333 357.907C649.316 357.142 649.053 356.511 648.547 356.013 648.04 355.516 647.413 355.258 646.667 355.24ZM636 359.107C636.373 359.107 636.684 359.231 636.933 359.48 637.183 359.729 637.316 360.049 637.333 360.44L637.333 361.613C637.316 362.004 637.183 362.324 636.933 362.573 636.684 362.823 636.373 362.947 636 362.947 635.627 362.947 635.316 362.822 635.067 362.573 634.817 362.324 634.684 362.004 634.667 361.613L634.667 360.44C634.667 360.067 634.796 359.751 635.053 359.493 635.311 359.236 635.627 359.107 636 359.107ZM644 359.107C644.373 359.107 644.684 359.231 644.933 359.48 645.183 359.729 645.316 360.049 645.333 360.44L645.333 361.613C645.316 362.004 645.183 362.324 644.933 362.573 644.684 362.823 644.373 362.947 644 362.947 643.627 362.947 643.316 362.822 643.067 362.573 642.817 362.324 642.684 362.004 642.667 361.613L642.667 360.44C642.684 360.049 642.817 359.729 643.067 359.48 643.316 359.231 643.627 359.107 644 359.107Z" fill="#FFFFFF"/></g></svg>