<svg width="24" height="24" xmlns="http://www.w3.org/2000/svg" xmlns:xlink="http://www.w3.org/1999/xlink" xml:space="preserve" overflow="hidden"><defs><clipPath id="clip0"><rect x="481" y="380" width="24" height="24"/></clipPath></defs><g clip-path="url(#clip0)" transform="translate(-481 -380)"><path d="M485.693 393.638C485.196 394.206 484.33 394.268 483.981 394.268 483.333 394.268 482.837 394.104 482.507 393.78 482.194 393.473 482.029 393.02 482.018 392.434 481.993 391.076 482.762 389.672 484.092 389.672 484.727 389.672 485.216 390.127 485.403 390.316 485.476 390.391 485.581 390.428 485.685 390.415 485.783 390.396 485.87 390.339 485.926 390.256 485.994 390.169 486.061 390.019 486.064 389.855 486.067 389.691 486.007 389.511 485.821 389.365 485.349 388.982 484.76 388.773 484.153 388.774 483.334 388.774 482.526 389.15 481.935 389.807 481.314 390.498 480.982 391.437 481 392.453 481.015 393.268 481.282 393.953 481.773 394.435 482.301 394.953 483.073 395.226 484.008 395.226 485.105 395.226 485.784 394.901 486.162 394.629 486.308 394.522 486.397 394.354 486.402 394.173 486.402 393.986 486.327 393.807 486.194 393.676 485.964 393.428 485.746 393.575 485.691 393.639ZM490.663 391.488C490.435 391.394 490.202 391.311 489.965 391.24 489.808 391.192 489.656 391.149 489.515 391.109 488.593 390.849 488.488 390.609 488.498 390.429 488.52 390.066 489.013 389.576 489.85 389.637 490.457 389.682 490.865 390.146 491.055 390.418 491.204 390.632 491.426 390.553 491.489 390.513 491.676 390.409 491.794 390.213 491.798 389.999 491.804 389.813 491.728 389.635 491.589 389.511 490.68 388.636 489.281 388.522 488.242 389.238 487.786 389.561 487.498 390.01 487.472 390.44 487.408 391.501 488.487 391.806 489.275 392.028 489.489 392.089 489.704 392.155 489.942 392.23 491.082 392.587 491.115 392.947 491.034 393.497 490.952 394.053 490.338 394.331 489.349 394.258 488.32 394.182 487.885 393.648 487.737 393.357 487.687 393.259 487.532 393.109 487.324 393.201 486.81 393.43 486.851 393.932 487.064 394.194 487.403 394.61 488.214 395.229 489.731 395.229 491.465 395.229 491.986 394.354 492.109 393.589 492.201 393.017 492.087 392.561 491.761 392.193 491.525 391.926 491.169 391.698 490.66 391.487ZM497.44 389.323C496.842 388.892 496.047 388.713 495.08 388.791 494.368 388.849 493.806 389.034 493.745 389.054L493.739 389.056C493.573 389.111 493.456 389.261 493.442 389.435L492.972 394.636C492.96 394.797 493.064 394.943 493.219 394.986L493.291 395.006 493.357 395.024 493.443 395.045C493.982 395.163 494.531 395.224 495.083 395.228 496.055 395.228 496.848 394.998 497.443 394.544 498.207 393.961 498.584 393.044 498.561 391.819 498.54 390.684 498.163 389.845 497.44 389.324ZM496.778 393.784C495.942 394.423 494.688 394.346 494.101 394.265 494.034 394.255 493.987 394.195 493.992 394.128L494.389 389.88C494.393 389.832 494.428 389.791 494.475 389.78 495.474 389.539 496.252 389.612 496.787 389.998 496.976 390.135 497.135 390.329 497.258 390.566 497.434 390.905 497.535 391.331 497.544 391.8 497.561 392.716 497.304 393.383 496.779 393.784ZM504.967 390.41C504.908 390.07 504.759 389.753 504.535 389.491 504.136 389.026 503.506 388.802 502.687 388.802 501.953 388.802 501.315 389.03 500.74 389.601 500.747 389.515 500.759 389.442 500.758 389.378 500.757 389.314 500.741 389.262 500.692 389.215 500.644 389.17 500.615 389.148 500.565 389.138 500.515 389.128 500.443 389.13 500.309 389.132 500.001 389.13 499.745 389.366 499.72 389.672 499.72 389.672 499.395 393.546 499.292 394.837 499.285 394.92 499.311 395.002 499.365 395.065 499.429 395.143 499.524 395.191 499.625 395.196L500.012 395.196C500.129 395.198 500.228 395.108 500.238 394.991L500.511 392.062 500.525 391.915C500.537 391.775 500.565 391.637 500.607 391.503 500.621 391.458 500.637 391.411 500.654 391.363 500.899 390.669 501.457 389.643 502.625 389.669 503.465 389.687 504.074 390.124 504.01 390.783 503.909 391.817 503.744 393.883 503.652 394.923 503.633 395.132 503.834 395.196 503.904 395.196L504.208 395.196C504.439 395.198 504.632 395.022 504.652 394.792 504.652 394.792 504.837 392.665 504.946 391.44L504.994 390.908C505.007 390.741 504.998 390.573 504.968 390.408Z" fill="#FFFFFF"/></g></svg>