<svg width="24" height="24" xmlns="http://www.w3.org/2000/svg" xmlns:xlink="http://www.w3.org/1999/xlink" xml:space="preserve" overflow="hidden"><g transform="translate(-628 -348)"><path d="M628.51 351.06 651.49 351.06 651.49 348.755 628.51 348.755 628.51 351.06ZM649.486 353.597 649.486 363.205 647.349 363.205 645.68 368.965 652 368.965 652 371.245 628 371.245 628 368.965 634.32 368.965 632.65 363.205 630.515 363.205 630.515 353.597 649.487 353.597ZM644.42 363.205 635.58 363.205 637.25 368.965 642.751 368.965 644.421 363.205ZM646.367 355.9 633.634 355.9 633.634 360.925 646.367 360.925 646.367 355.9Z" fill="#FFFFFF"/></g></svg>