<svg width="24" height="24" xmlns="http://www.w3.org/2000/svg" xmlns:xlink="http://www.w3.org/1999/xlink" xml:space="preserve" overflow="hidden"><g transform="translate(-628 -348)"><path d="M643.61 360C643.61 361.99 641.99 363.61 640 363.61 638.01 363.61 636.39 361.99 636.39 360 636.39 358.01 638.01 356.39 640 356.39 641.99 356.39 643.61 358.01 643.61 360M640 348C633.383 348 628 353.383 628 360 628 366.617 633.383 372 640 372 642.424 372 644.761 371.278 646.76 369.913L646.794 369.889 645.177 368.01 645.15 368.027C643.615 369.016 641.826 369.542 640 369.54 634.74 369.54 630.46 365.26 630.46 360 630.46 354.74 634.74 350.46 640 350.46 645.26 350.46 649.54 354.74 649.54 360 649.539 360.689 649.463 361.377 649.315 362.05 649.014 363.289 648.146 363.668 647.495 363.618 646.841 363.565 646.075 363.098 646.069 361.957L646.069 360C646.066 356.649 643.351 353.934 640 353.93 636.649 353.933 633.933 356.649 633.93 360 633.933 363.351 636.649 366.067 640 366.07 641.616 366.074 643.165 365.428 644.3 364.278 645.022 365.411 646.276 366.093 647.62 366.083 648.494 366.083 649.36 365.791 650.057 365.262 650.776 364.715 651.313 363.926 651.61 362.977 651.657 362.823 651.745 362.473 651.745 362.47L651.747 362.457C651.922 361.697 652 360.937 652 360 652 353.383 646.617 348 640 348" fill="#FFFFFF"/></g></svg>