<svg width="24" height="24" xmlns="http://www.w3.org/2000/svg" xmlns:xlink="http://www.w3.org/1999/xlink" xml:space="preserve" overflow="hidden"><g transform="translate(-628 -348)"><path d="M637.101 371.691 637.101 363.711 634.627 363.711 634.627 360.044 637.101 360.044 637.101 358.464C637.101 354.379 638.949 352.486 642.959 352.486 643.36 352.486 643.914 352.528 644.427 352.589 644.811 352.629 645.192 352.694 645.568 352.784L645.568 356.109C645.351 356.089 645.133 356.077 644.915 356.073 644.671 356.067 644.426 356.064 644.182 356.064 643.475 356.064 642.923 356.16 642.507 356.373 642.227 356.513 641.992 356.729 641.828 356.995 641.57 357.415 641.454 357.99 641.454 358.747L641.454 360.044 645.373 360.044 644.987 362.147 644.7 363.711 641.454 363.711 641.454 371.956C647.396 371.238 652 366.179 652 360.044 652 353.417 646.627 348.044 640 348.044 633.373 348.044 628 353.417 628 360.044 628 365.672 631.874 370.394 637.101 371.691Z" fill="#FFFFFF"/></g></svg>