<svg width="24" height="24" xmlns="http://www.w3.org/2000/svg" xmlns:xlink="http://www.w3.org/1999/xlink" xml:space="preserve" overflow="hidden"><g transform="translate(-622 -401)"><path d="M634 401.297C627.37 401.297 622 406.67 622 413.297 622 418.6 625.438 423.097 630.205 424.682 630.805 424.795 631.025 424.424 631.025 424.105 631.025 423.82 631.015 423.065 631.01 422.065 627.672 422.789 626.968 420.455 626.968 420.455 626.422 419.07 625.633 418.7 625.633 418.7 624.546 417.956 625.717 417.971 625.717 417.971 626.922 418.055 627.555 419.207 627.555 419.207 628.625 421.042 630.364 420.512 631.05 420.205 631.158 419.429 631.467 418.9 631.81 418.6 629.145 418.3 626.344 417.268 626.344 412.67 626.344 411.36 626.809 410.29 627.579 409.45 627.444 409.147 627.039 407.927 627.684 406.274 627.684 406.274 628.689 405.952 630.984 407.504 631.944 407.237 632.964 407.105 633.984 407.099 635.004 407.105 636.024 407.237 636.984 407.504 639.264 405.952 640.269 406.274 640.269 406.274 640.914 407.927 640.509 409.147 640.389 409.45 641.154 410.29 641.619 411.36 641.619 412.67 641.619 417.28 638.814 418.295 636.144 418.59 636.564 418.95 636.954 419.686 636.954 420.81 636.954 422.416 636.939 423.706 636.939 424.096 636.939 424.411 637.149 424.786 637.764 424.666 642.565 423.092 646 418.592 646 413.297 646 406.67 640.627 401.297 634 401.297" fill="#FFFFFF"/></g></svg>