<svg width="24" height="24" xmlns="http://www.w3.org/2000/svg" xmlns:xlink="http://www.w3.org/1999/xlink" xml:space="preserve" overflow="hidden"><defs><clipPath id="clip0"><rect x="628" y="348" width="24" height="24"/></clipPath></defs><g clip-path="url(#clip0)" transform="translate(-628 -348)"><path d="M651.6 357.593 651.567 357.507 648.3 348.981C648.234 348.814 648.116 348.672 647.964 348.576 647.652 348.383 647.253 348.405 646.964 348.63 646.825 348.744 646.723 348.897 646.674 349.07L644.469 355.818 635.537 355.818 633.332 349.07C633.284 348.896 633.182 348.742 633.042 348.629 632.753 348.403 632.354 348.382 632.042 348.575 631.89 348.672 631.773 348.813 631.706 348.98L628.433 357.501 628.401 357.588C627.435 360.112 628.255 362.971 630.413 364.598L630.424 364.607 630.454 364.628 635.43 368.355 637.892 370.218 639.391 371.35C639.752 371.624 640.251 371.624 640.611 371.35L642.111 370.218 644.573 368.355 649.578 364.606 649.591 364.596C651.744 362.968 652.562 360.114 651.6 357.593Z" fill="#FFFFFF"/></g></svg>