<svg width="24" height="24" xmlns="http://www.w3.org/2000/svg" xmlns:xlink="http://www.w3.org/1999/xlink" xml:space="preserve" overflow="hidden"><g transform="translate(-628 -348)"><path d="M640.48 358.92 640.48 362.2 648.32 362.2C648.08 364.04 647.467 365.387 646.533 366.333 645.386 367.48 643.6 368.733 640.48 368.733 635.653 368.733 631.88 364.84 631.88 360.013 631.88 355.186 635.653 351.293 640.48 351.293 643.08 351.293 644.987 352.32 646.387 353.64L648.694 351.333C646.747 349.44 644.133 348 640.48 348 633.867 348 628.307 353.387 628.307 360 628.307 366.613 633.867 372 640.48 372 644.053 372 646.747 370.827 648.853 368.64 651.013 366.48 651.693 363.427 651.693 360.973 651.693 360.213 651.64 359.506 651.52 358.92L640.48 358.92Z" fill="#FFFFFF"/></g></svg>