<svg width="24" height="24" xmlns="http://www.w3.org/2000/svg" xmlns:xlink="http://www.w3.org/1999/xlink" xml:space="preserve" overflow="hidden"><g transform="translate(-628 -348)"><path d="M641.046 357.388C640.821 357.432 640.6 357.495 640.386 357.578 639.577 357.89 638.939 358.569 638.72 359.353 638.647 359.616 638.622 359.891 638.646 360.163 638.694 360.709 638.979 361.213 639.41 361.513 640.05 361.963 640.93 361.838 641.42 361.227 641.826 360.696 641.775 360.044 641.66 359.591 641.562 359.204 641.44 358.775 641.315 358.342 641.223 358.025 641.133 357.707 641.046 357.388ZM640.226 367.458C636.242 367.458 633.002 364.218 633.002 360.235 633.002 359.255 633.228 357.215 634.886 355.413 635.612 354.621 636.505 354.001 637.502 353.6 637.909 353.438 638.369 353.636 638.531 354.043 638.694 354.449 638.495 354.91 638.089 355.072 636.905 355.551 635.919 356.419 635.294 357.534 634.832 358.359 634.588 359.288 634.587 360.234 634.591 363.346 637.113 365.868 640.225 365.872 642.069 365.872 643.852 364.919 644.767 363.444 645.809 361.764 645.539 359.513 644.14 358.206 643.734 357.831 643.24 357.563 642.703 357.429 642.875 358.018 643.037 358.609 643.197 359.201 643.481 360.321 643.297 361.382 642.678 362.19 642.288 362.7 641.722 363.078 641.086 363.254 640.204 363.504 639.255 363.343 638.506 362.814 637.68 362.228 637.154 361.309 637.066 360.3 637.026 359.833 637.068 359.37 637.194 358.924 637.544 357.668 638.55 356.585 639.816 356.098 640.083 355.995 640.359 355.912 640.639 355.852L640.505 355.347C640.135 353.976 640.755 352.768 642.052 352.34 642.381 352.231 642.732 352.195 643.077 352.235 643.869 352.325 644.553 352.827 644.786 353.258 645.044 353.765 644.69 354.411 644.08 354.411 643.879 354.411 643.686 354.335 643.54 354.198 643.452 354.118 643.377 354.024 643.281 353.951 643.102 353.811 642.874 353.751 642.649 353.785 642.351 353.836 642.107 354.048 642.015 354.336 641.959 354.527 641.984 354.742 642.035 354.931 642.105 355.187 642.194 355.528 642.252 355.751 643.362 355.849 644.414 356.291 645.222 357.047 647.196 358.891 647.572 361.933 646.114 364.28 644.917 366.21 642.605 367.457 640.225 367.457ZM628 360C628 366.627 633.373 372 640 372 646.627 372 652 366.627 652 360 652 353.373 646.627 348 640 348 633.373 348 628 353.373 628 360Z" fill="#FFFFFF"/></g></svg>