<svg width="24" height="24" xmlns="http://www.w3.org/2000/svg" xmlns:xlink="http://www.w3.org/1999/xlink" xml:space="preserve" overflow="hidden"><g transform="translate(-573 -417)"><path d="M594.395 432.035C594.15 431.272 593.882 430.517 593.592 429.771L592.513 427.076C592.514 427.044 592.527 426.514 592.527 426.24 592.526 421.632 590.351 417 585 417 579.649 417 577.474 421.632 577.474 426.241 577.474 426.515 577.487 427.045 577.488 427.077L576.408 429.772C576.117 430.518 575.85 431.273 575.606 432.036 574.585 435.319 574.916 436.679 575.168 436.709 575.708 436.774 577.271 434.237 577.271 434.237 577.271 435.706 578.027 437.624 579.665 439.008 579.053 439.196 578.302 439.487 577.82 439.843 577.386 440.163 577.441 440.489 577.519 440.621 577.862 441.199 583.402 440.99 585.001 440.81 586.601 440.99 592.141 441.199 592.484 440.621 592.562 440.489 592.616 440.163 592.183 439.843 591.7 439.487 590.95 439.197 590.337 439.007 591.974 437.623 592.73 435.705 592.73 434.236 592.73 434.236 594.293 436.773 594.833 436.708 595.084 436.678 595.414 435.318 594.395 432.035" fill="#FFFFFF"/></g></svg>