<svg width="24" height="24" xmlns="http://www.w3.org/2000/svg" xmlns:xlink="http://www.w3.org/1999/xlink" xml:space="preserve" overflow="hidden"><g transform="translate(-652 -393)"><path d="M675.987 402.201C675.955 402.102 675.86 401.978 675.653 401.943 675.446 401.907 668.301 400.537 668.301 400.537 668.301 400.537 668.196 400.515 668.103 400.467 668.011 400.42 667.976 400.3 667.976 400.3 667.976 400.3 664.447 393.954 664.349 393.768 664.25 393.581 664.104 393.53 664 393.53 663.896 393.53 663.749 393.581 663.651 393.768 663.553 393.954 660.024 400.3 660.024 400.3 660.024 400.3 659.99 400.42 659.896 400.467 659.805 400.514 659.7 400.537 659.7 400.537 659.7 400.537 652.555 401.907 652.347 401.942 652.139 401.978 652.045 402.102 652.014 402.2 651.974 402.361 652.022 402.531 652.139 402.649L657.501 408.14C657.501 408.14 657.573 408.22 657.62 408.312 657.636 408.416 657.625 408.522 657.625 408.522 657.625 408.522 656.436 415.765 656.405 415.973 656.374 416.181 656.48 416.342 656.564 416.403 656.647 416.465 656.797 416.509 656.985 416.416 657.174 416.323 663.798 413.155 663.798 413.155 663.798 413.155 663.896 413.111 663.999 413.094 664.102 413.077 664.2 413.155 664.2 413.155 664.2 413.155 670.824 416.323 671.013 416.416 671.201 416.51 671.351 416.465 671.434 416.403 671.559 416.298 671.62 416.134 671.593 415.973 671.572 415.833 670.663 410.295 670.663 410.295 671.539 409.755 672.088 409.256 672.512 408.548 669.918 409.517 666.505 410.265 663.096 410.414 662.181 410.455 660.686 410.511 659.623 410.399 658.945 410.328 658.452 410.255 658.379 409.961 658.326 409.746 658.433 409.501 658.924 409.13 659.878 408.411 660.832 407.693 661.786 406.975 663.071 406.007 665.345 404.504 665.345 404.243 665.345 403.958 663.201 403.462 661.308 403.462 659.363 403.462 659.032 403.594 658.496 403.63 658.008 403.664 657.727 403.635 657.692 403.492 657.632 403.244 657.875 403.103 658.28 402.924 658.99 402.61 660.141 402.33 660.265 402.298 660.459 402.246 663.347 401.493 665.883 401.763 667.202 401.903 669.128 402.431 669.128 403.039 669.128 403.381 667.407 404.534 665.903 405.637 664.753 406.48 663.685 407.198 663.685 407.325 663.685 407.667 667.219 408.566 670.375 408.335L670.378 408.313C670.426 408.221 670.497 408.141 670.497 408.141L675.86 402.65C675.977 402.533 676.026 402.363 675.987 402.201Z" fill="#FFFFFF"/></g></svg>