<svg width="24" height="24" xmlns="http://www.w3.org/2000/svg" xmlns:xlink="http://www.w3.org/1999/xlink" xml:space="preserve" overflow="hidden"><g transform="translate(-640 -419)"><path d="M659.199 443C659.199 432.467 650.533 423.8 640 423.8L640 419C653.165 419 664 429.835 664 443L659.199 443ZM643.291 436.415C645.105 436.415 646.584 437.894 646.584 439.71 646.584 441.523 645.099 443 643.283 443 641.47 443 640 441.526 640 439.71 640 437.894 641.475 436.416 643.291 436.415ZM655.909 443 651.244 443C651.244 436.831 646.169 431.755 640 431.755L640 427.09C648.727 427.09 655.909 434.274 655.909 443Z" fill="#FFFFFF"/></g></svg>