<svg width="24" height="24" xmlns="http://www.w3.org/2000/svg" xmlns:xlink="http://www.w3.org/1999/xlink" xml:space="preserve" overflow="hidden"><defs><clipPath id="clip0"><rect x="628" y="348" width="24" height="24"/></clipPath></defs><g clip-path="url(#clip0)" transform="translate(-628 -348)"><path d="M638.098 368.323C634.121 368.714 630.684 366.917 630.426 364.303 630.167 361.694 633.185 359.256 637.166 358.862 641.145 358.468 644.579 360.266 644.837 362.88 645.096 365.48 642.078 367.929 638.1 368.319L638.098 368.323ZM637.05 365.219C636.666 365.835 635.842 366.103 635.221 365.821 634.609 365.542 634.428 364.83 634.815 364.228 635.194 363.633 635.991 363.367 636.608 363.627 637.23 363.89 637.428 364.599 637.05 365.219ZM638.32 363.592C638.179 363.829 637.871 363.945 637.631 363.845 637.395 363.755 637.318 363.484 637.454 363.259 637.592 363.032 637.89 362.913 638.126 363.019 638.365 363.109 638.441 363.379 638.306 363.62L638.32 363.592ZM638.496 360.873C636.603 360.38 634.463 361.323 633.639 362.991 632.803 364.695 633.613 366.582 635.525 367.201 637.508 367.841 639.843 366.86 640.657 365.022 641.457 363.229 640.456 361.38 638.496 360.873ZM646.059 359.649C645.713 359.544 645.489 359.469 645.654 359.034 646.029 358.057 646.074 357.23 645.654 356.63 644.873 355.518 642.739 355.577 640.29 356.6 640.29 356.6 639.524 356.931 639.719 356.329 640.095 355.112 640.034 354.105 639.449 353.52 638.111 352.183 634.58 353.565 631.561 356.6 629.309 358.87 628 361.273 628 363.348 628 367.329 633.099 369.743 638.086 369.743 644.622 369.743 648.974 365.942 648.974 362.923 648.974 361.101 647.427 360.069 646.059 359.639L646.059 359.649ZM647.967 354.557C647.201 353.701 646.059 353.37 645.007 353.595 644.571 353.685 644.301 354.106 644.391 354.527 644.481 354.947 644.902 355.218 645.323 355.129 645.834 355.024 646.39 355.173 646.765 355.594 647.141 356.015 647.231 356.571 647.081 357.067 646.945 357.473 647.17 357.923 647.591 358.059 647.996 358.178 648.448 357.954 648.583 357.547 648.913 356.526 648.703 355.369 647.937 354.512L647.967 354.557ZM650.385 352.362C648.809 350.605 646.48 349.943 644.331 350.394 643.835 350.498 643.519 350.981 643.625 351.475 643.729 351.971 644.211 352.288 644.707 352.182 646.239 351.851 647.892 352.332 649.003 353.565 650.115 354.811 650.432 356.508 649.95 357.981 649.785 358.461 650.056 358.988 650.536 359.138 651.015 359.303 651.527 359.034 651.693 358.552 652.368 356.464 651.934 354.074 650.355 352.317L650.385 352.362Z" fill="#FFFFFF"/></g></svg>