<svg width="24" height="24" xmlns="http://www.w3.org/2000/svg" xmlns:xlink="http://www.w3.org/1999/xlink" xml:space="preserve" overflow="hidden"><g transform="translate(-557 -388)"><path d="M572.725 388 571.005 389.277 577.395 397.865 579.111 396.588 572.725 388ZM568.785 391.418 567.416 393.062 575.641 399.912 577.01 398.268 568.785 391.418ZM565.635 395.883 564.73 397.823 574.432 402.34 575.336 400.4 565.635 395.883ZM563.785 400.743 563.345 402.836 573.818 405.037 574.258 402.945 563.785 400.742ZM558.89 403.47 558.89 412 578.08 412 578.08 403.47 575.947 403.47 575.947 409.867 561.021 409.867 561.021 403.471 558.89 403.471ZM563.155 405.603 563.155 407.733 573.815 407.733 573.815 405.603 563.154 405.603Z" fill="#FFFFFF"/></g></svg>