<svg width="24" height="24" xmlns="http://www.w3.org/2000/svg" xmlns:xlink="http://www.w3.org/1999/xlink" xml:space="preserve" overflow="hidden"><defs><clipPath id="clip0"><rect x="628" y="348" width="24" height="24"/></clipPath></defs><g clip-path="url(#clip0)" transform="translate(-628 -348)"><path d="M639.944 348C633.338 348.031 628 353.394 628 360 628 366.627 633.373 372 640 372 646.627 372 652 366.627 652 360 652 353.373 646.627 348 640 348 639.981 348 639.963 348 639.944 348ZM644.906 355.224C645.006 355.222 645.227 355.247 645.371 355.364 645.467 355.447 645.528 355.563 645.542 355.689 645.558 355.782 645.578 355.995 645.562 356.161 645.382 358.059 644.6 362.663 644.202 364.788 644.034 365.688 643.703 365.989 643.382 366.018 642.686 366.083 642.157 365.558 641.482 365.116 640.426 364.423 639.829 363.992 638.804 363.316 637.619 362.536 638.387 362.106 639.062 361.406 639.239 361.222 642.309 358.429 642.369 358.176 642.376 358.144 642.383 358.026 642.313 357.964 642.243 357.902 642.139 357.923 642.064 357.94 641.958 357.964 640.271 359.08 637.003 361.285 636.523 361.615 636.09 361.775 635.701 361.765 635.273 361.757 634.449 361.524 633.836 361.325 633.084 361.08 632.487 360.951 632.539 360.536 632.566 360.32 632.864 360.099 633.432 359.873 636.93 358.349 639.262 357.344 640.43 356.859 643.762 355.473 644.455 355.232 644.906 355.224Z" fill="#FFFFFF"/></g></svg>