<svg width="24" height="24" xmlns="http://www.w3.org/2000/svg" xmlns:xlink="http://www.w3.org/1999/xlink" xml:space="preserve" overflow="hidden"><g transform="translate(-630 -412)"><path d="M638.691 414.188C633.891 414.188 630 417.476 630 421.53 630 423.742 631.17 425.733 633.002 427.08 633.211 427.231 633.297 427.501 633.215 427.745L632.825 429.225C632.806 429.295 632.777 429.366 632.777 429.438 632.777 429.601 632.907 429.733 633.067 429.733 633.127 429.731 633.184 429.712 633.234 429.679L635.137 428.565C635.35 428.429 635.612 428.393 635.854 428.467 636.776 428.735 637.731 428.87 638.691 428.87 638.967 428.87 639.234 428.843 639.502 428.82 638.645 426.242 639.659 423.848 641.434 422.374 643.137 420.959 645.316 420.394 647.287 420.536 646.711 416.953 643.091 414.188 638.691 414.188ZM635.785 417.991C636.427 417.991 636.947 418.52 636.947 419.171 636.951 419.817 636.431 420.345 635.785 420.349 635.785 420.349 635.785 420.349 635.785 420.349 635.139 420.345 634.619 419.817 634.623 419.171 634.623 419.171 634.623 419.17 634.623 419.17 634.623 418.519 635.143 417.99 635.785 417.99ZM641.598 417.991C642.24 417.991 642.76 418.52 642.76 419.171 642.764 419.817 642.244 420.345 641.598 420.349 641.598 420.349 641.598 420.349 641.598 420.349 640.952 420.345 640.432 419.817 640.436 419.171 640.436 419.171 640.436 419.171 640.436 419.171 640.436 418.52 640.956 417.991 641.598 417.991ZM646.938 420.858C645.141 420.806 643.192 421.37 641.658 422.644 639.938 424.072 638.971 426.364 639.878 428.864 640.82 431.317 643.544 433.093 646.762 433.093 647.588 433.093 648.384 432.973 649.123 432.757 649.325 432.696 649.543 432.726 649.721 432.839L651.305 433.765C651.346 433.793 651.395 433.81 651.445 433.812 651.579 433.812 651.685 433.701 651.685 433.565 651.685 433.505 651.662 433.445 651.647 433.388L651.32 432.155C651.305 432.104 651.298 432.052 651.297 431.999 651.296 431.842 651.371 431.694 651.498 431.601 653.024 430.48 654 428.82 654 426.98 654 423.77 651.069 421.143 647.344 420.892L647.344 420.89C647.209 420.88 647.074 420.863 646.937 420.86ZM644.408 424.132C644.943 424.132 645.377 424.572 645.377 425.114 645.381 425.653 644.947 426.093 644.408 426.097 644.408 426.097 644.408 426.097 644.408 426.097 643.869 426.093 643.435 425.653 643.439 425.114 643.439 425.114 643.439 425.114 643.439 425.114 643.439 424.572 643.873 424.132 644.409 424.132ZM649.252 424.132C649.787 424.132 650.221 424.572 650.221 425.114 650.225 425.653 649.791 426.093 649.252 426.097 649.252 426.097 649.252 426.097 649.252 426.097 648.713 426.093 648.279 425.653 648.283 425.114 648.283 425.114 648.283 425.114 648.283 425.114 648.283 424.572 648.717 424.132 649.252 424.132Z" fill="#FFFFFF"/></g></svg>