<svg width="24" height="24" xmlns="http://www.w3.org/2000/svg" xmlns:xlink="http://www.w3.org/1999/xlink" xml:space="preserve" overflow="hidden"><g transform="translate(-628 -348)"><path d="M633.721 348C630.251 348 628 350.25 628 353.719L628 366.28C628 369.751 630.252 372 633.721 372L646.281 372C649.751 372 652 369.75 652 366.281L652 353.72C652 350.249 649.75 348 646.281 348ZM635.685 352.078C635.414 352.808 635.185 353.512 635.005 354.188L639.592 354.188C640.137 354.182 640.037 355.356 640.037 355.359L637.384 355.359C637.388 356.626 637.351 357.892 637.272 359.156L639.984 359.156C640.372 359.179 640.377 360.407 640.377 360.422L637.183 360.422C637.129 361.136 636.992 361.842 636.775 362.524L637.532 361.92C637.984 362.376 639.044 363.632 639.438 364.097 639.911 364.778 639.501 366.178 639.501 366.178L636.707 362.796C636.054 365.314 634.862 366.403 634.862 366.403 634.339 366.871 633.282 367.223 632.222 366.919 634.44 365.189 635.662 363.002 635.889 360.422L632.491 360.422C632.491 360.407 632.688 359.179 633.297 359.156L636.007 359.156C636.031 358.836 636.093 355.902 636.093 355.359L634.598 355.359C634.462 355.765 634.44 355.806 634.33 356.112 633.736 357.207 632.727 357.234 632.423 357.267 633.329 355.446 633.839 353.667 634.014 353.203 634.439 352.079 635.685 352.078 635.685 352.078ZM641.078 354 647.455 354 647.455 365.33 644.882 365.33 642.698 366.703 642.297 365.33 641.078 365.33ZM642.391 355.219 642.391 364.079 643.014 364.079 643.277 365.016 644.732 364.078 646.188 364.078 646.188 355.218Z" fill="#FFFFFF"/></g></svg>